<?xml version="1.0" encoding="UTF-8"?>
<svg xmlns="http://www.w3.org/2000/svg" viewBox="0 0 512 512" role="img" aria-label="A">
  <title>A</title>
  <g transform="translate(256.0,286.72) scale(0.453527364757988, -0.453527364757988) translate(-462.57142857142856, -259.0)">
    <path d="M142 -83Q109 -83 79.0 -72.0Q49 -61 30.0 -37.0Q11 -13 11 24Q11 33 15.5 40.5Q20 48 24 48Q32 48 32 24Q32 -10 61 -29Q84 -44 123 -44Q162 -44 204.0 -30.0Q246 -16 284 10Q329 40 384.5 96.5Q440 153 500 220Q452 225 404.5 231.0Q357 237 309 237Q277 237 245.0 230.5Q213 224 187.0 206.0Q161 188 148 153Q147 149 145.5 144.0Q144 139 144 134Q144 124 149 116Q151 110 151 109Q151 100 143 100Q136 100 132 107Q122 125 122 153Q122 206 141.5 234.0Q161 262 194.0 272.0Q227 282 265 282Q282 282 300.5 280.5Q319 279 337 277Q381 273 428.0 263.5Q475 254 522 244Q574 305 624.5 367.0Q675 429 719.0 484.5Q763 540 794 580Q795 583 798 584Q800 586 801 586Q812 592 829.0 596.5Q846 601 852 601Q862 601 862 590Q862 587 857 579Q807 494 771.5 405.0Q736 316 709 222L707 215Q713 215 719.5 214.5Q726 214 731 214Q774 211 804 223Q826 231 834 246Q837 250 839 250Q844 250 846.0 244.5Q848 239 845 234Q834 215 806 206Q790 199 769.5 197.0Q749 195 727 196H721L709 197H703Q688 142 682 83Q681 78 681.0 73.5Q681 69 681 64Q681 7 712 7Q732 7 759.5 25.0Q787 43 815.5 69.0Q844 95 867.0 120.5Q890 146 901 161Q903 163 907 163Q917 163 913 152Q911 149 896.0 128.5Q881 108 855.0 79.5Q829 51 794 23Q766 1 738.5 -5.5Q711 -12 697 -12Q669 -12 652.5 13.5Q636 39 636 79Q636 108 642.0 139.0Q648 170 656 201Q627 204 597.0 207.5Q567 211 537 215Q477 142 417.5 78.5Q358 15 306 -24Q267 -52 225.5 -67.5Q184 -83 142 -83ZM660 220Q678 290 702.5 360.5Q727 431 751 489L756 501Q713 441 661.5 373.0Q610 305 557 238Q583 233 609.0 228.5Q635 224 660 220Z" fill="#FFFFFF" />
  </g>
</svg>